# xmcd
#
# Track frame offsets:
#	182
#	14237
#	26080
#	40717
#	56187
#	68212
#	80062
#	92890
#	107675
#	122402
#	133050
#	145837
#	159822
#	173965
#	188007
#	200810
#	212900
#	223462
#	235370
#	250030
#	267185
#	279665
#
# Disc length: 3941 seconds
# Revision: 3
# Processed by: cddbd v1.5.2PL0 Copyright (c) Steve Scherf et al.
# Submitted via: dBpowerAMP V12.0
#
DISCID=550f6316
DTITLE=Anne Murray - Her Greatest Hits And Finest Performances Disc 3
DYEAR=1990
DGENRE=Country
TTITLE0=A Little Good News
TTITLE1=I'll Be Home
TTITLE2=Sunday Sunrise
TTITLE3=Lift Your Hearts To The Sun
TTITLE4=Get Together
TTITLE5=United We Stand (With Glen Campbell)
TTITLE6=I'll Never Fall In Love Again
TTITLE7=Let Me Be The One (With Glen Campbell)
TTITLE8=Nevertheless (I'm In Love With You)
TTITLE9=Everything Old Is New Again
TTITLE10=Canadian Sunset (With Glen Campbell)
TTITLE11=You've Got A Friend
TTITLE12=Dream Lover
TTITLE13=Rainin' In My Heart
TTITLE14=Day Tripper
TTITLE15=Bitter They Are, Harder They Fall
TTITLE16=Fire And Rain
TTITLE17=What About Me
TTITLE18=I Know
TTITLE19=Ease Your Pain
TTITLE20=One Day I Walk
TTITLE21=Put Your Hand In The Hand
EXTD=
EXTT0=
EXTT1=
EXTT2=
EXTT3=
EXTT4=
EXTT5=
EXTT6=
EXTT7=
EXTT8=
EXTT9=
EXTT10=
EXTT11=
EXTT12=
EXTT13=
EXTT14=
EXTT15=
EXTT16=
EXTT17=
EXTT18=
EXTT19=
EXTT20=
EXTT21=
PLAYORDER=
